<svg width="150" height="96" viewBox="0 0 150 96" fill="none" xmlns="http://www.w3.org/2000/svg">
<path d="M69.3567 2.50826C71.8625 -0.0255384 77.7461 -0.0255384 80.252 2.50826C82.3523 4.63198 87.0054 5.05115 89.9758 3.38415C93.5195 1.39528 99.1648 2.4338 100.43 5.30723C101.49 7.71573 105.766 8.93916 109.366 7.86397C113.66 6.58115 118.61 8.57403 118.531 11.5544C118.466 14.0524 122.018 15.9811 125.955 15.5848C130.654 15.1119 134.507 17.8978 133.091 20.7435C131.905 23.1288 134.445 25.6064 138.402 25.9211C143.122 26.2966 145.566 29.6496 142.928 32.1303C140.717 34.2094 142.042 37.0354 145.696 38.0356C150.055 39.2289 150.892 42.8775 147.246 44.792C144.19 46.3968 144.19 49.342 147.246 50.9467C150.892 52.8612 150.055 56.5098 145.696 57.7032C142.042 58.7034 140.717 61.5293 142.928 63.6085C145.566 66.0891 143.122 69.4421 138.402 69.8176C134.445 70.1324 131.905 72.6101 133.091 74.9953C134.507 77.841 130.654 80.6271 125.955 80.1538C122.018 79.7574 118.466 81.6867 118.531 84.1842C118.61 87.1648 113.66 89.1574 109.366 87.8747C105.766 86.7993 101.49 88.0232 100.43 90.4318C99.1648 93.3053 93.5195 94.3438 89.9758 92.3542C87.0054 90.6872 82.3523 91.107 80.252 93.2307C77.7461 95.7644 71.8625 95.7644 69.3567 93.2307C67.2564 91.107 62.6032 90.6872 59.6329 92.3542C56.0892 94.3438 50.4438 93.3053 49.179 90.4318C48.1188 88.0232 43.8426 86.7993 40.243 87.8747C35.9484 89.1574 30.9987 87.1648 31.0773 84.1842C31.1431 81.6867 27.5903 79.7574 23.653 80.1538C18.9556 80.6271 15.1026 77.841 16.5181 74.9953C17.7045 72.6101 15.1629 70.1324 11.207 69.8176C6.48716 69.4421 4.04299 66.0891 6.68094 63.6085C8.89187 61.5293 7.56748 58.7034 3.9132 57.7032C-0.44653 56.5098 -1.28386 52.8612 2.36266 50.9467C5.4191 49.342 5.4191 46.3968 2.36266 44.7921C-1.28386 42.8775 -0.44653 39.2289 3.9132 38.0356C7.56748 37.0354 8.89187 34.2094 6.68094 32.1303C4.04299 29.6496 6.48716 26.2966 11.207 25.9211C15.1629 25.6064 17.7045 23.1288 16.5181 20.7435C15.1026 17.8978 18.9556 15.1119 23.653 15.5848C27.5903 15.9811 31.1431 14.0524 31.0773 11.5544C30.9987 8.57403 35.9484 6.58115 40.243 7.86397C43.8426 8.93916 48.1188 7.71573 49.179 5.30723C50.4438 2.43379 56.0892 1.39528 59.6329 3.38415C62.6032 5.05115 67.2564 4.63198 69.3567 2.50826Z" fill="#292E36"/>
</svg>
